<svg height="200px" width="200px" version="1.1" id="Layer_1" xmlns="http://www.w3.org/2000/svg" xmlns:xlink="http://www.w3.org/1999/xlink" viewBox="0 0 512 512" xml:space="preserve" fill="#000000"><g id="SVGRepo_bgCarrier" stroke-width="0"></g><g id="SVGRepo_tracerCarrier" stroke-linecap="round" stroke-linejoin="round"></g><g id="SVGRepo_iconCarrier"> <path style="fill:#199172;" d="M0,457.257h512v-27.429H0V457.257z"></path> <path style="fill:#EDEBDA;" d="M256,420.686L256,420.686c-72.229-29.257-149.029-39.314-219.429-9.143h-9.143V73.257h9.143 c68.571-24.686,150.857-24.686,219.429,0V420.686z"></path> <g> <path style="fill:#CEC9AE;" d="M201.143,146.4h-82.286c-5.486,0-9.143-3.657-9.143-9.143s3.657-9.143,9.143-9.143h82.286 c5.486,0,9.143,3.657,9.143,9.143S206.629,146.4,201.143,146.4"></path> <path style="fill:#CEC9AE;" d="M82.286,146.4c-0.914,0-2.743,0-3.657-0.914s-1.829-0.914-2.743-1.829 c-1.829-1.829-2.743-3.657-2.743-6.4s0.914-4.571,2.743-6.4c3.657-3.657,9.143-3.657,12.8,0c1.829,1.829,2.743,3.657,2.743,6.4 s-0.914,4.571-2.743,6.4C86.857,145.486,85.029,146.4,82.286,146.4"></path> <path style="fill:#CEC9AE;" d="M201.143,192.114H82.286c-5.486,0-9.143-3.657-9.143-9.143s3.657-9.143,9.143-9.143h118.857 c5.486,0,9.143,3.657,9.143,9.143S206.629,192.114,201.143,192.114"></path> <path style="fill:#CEC9AE;" d="M164.571,237.829H82.286c-5.486,0-9.143-3.657-9.143-9.143s3.657-9.143,9.143-9.143h82.286 c5.486,0,9.143,3.657,9.143,9.143S170.057,237.829,164.571,237.829"></path> <path style="fill:#CEC9AE;" d="M201.143,237.829c-2.743,0-4.571-0.914-6.4-2.743c-0.914-0.914-1.829-1.829-1.829-2.743 S192,229.6,192,228.686c0-2.743,0.914-4.571,2.743-6.4c2.743-2.743,6.4-3.657,10.057-1.829c0.914,0,1.829,0.914,2.743,1.829 c1.829,1.829,2.743,3.657,2.743,6.4c0,0.914,0,2.743-0.914,3.657s-0.914,1.829-1.829,2.743 C205.714,236.914,203.886,237.829,201.143,237.829"></path> <path style="fill:#CEC9AE;" d="M201.143,283.543h-82.286c-5.486,0-9.143-3.657-9.143-9.143s3.657-9.143,9.143-9.143h82.286 c5.486,0,9.143,3.657,9.143,9.143S206.629,283.543,201.143,283.543"></path> <path style="fill:#CEC9AE;" d="M82.286,283.543c-2.743,0-4.571-0.914-6.4-2.743c-1.829-1.829-2.743-3.657-2.743-6.4 c0-0.914,0-2.743,0.914-3.657c0.914-0.914,0.914-1.829,1.829-2.743c3.657-3.657,10.057-3.657,12.8,0 c0.914,0.914,1.829,1.829,1.829,2.743c0.914,0.914,0.914,2.743,0.914,3.657c0,2.743-0.914,4.571-2.743,6.4 C86.857,282.629,85.029,283.543,82.286,283.543"></path> <path style="fill:#CEC9AE;" d="M201.143,329.257H82.286c-5.486,0-9.143-3.657-9.143-9.143s3.657-9.143,9.143-9.143h118.857 c5.486,0,9.143,3.657,9.143,9.143S206.629,329.257,201.143,329.257"></path> </g> <path style="fill:#CEC9AE;" d="M429.714,374.971L393.143,338.4l36.571-36.571l-36.571-36.571l36.571-36.571l-36.571-36.571 l36.571-36.571l-36.571-36.571L429.714,82.4l-24.686-24.686C354.743,51.314,303.543,56.8,256,73.257v347.429 c52.114-20.114,105.143-31.086,153.6-26.514L429.714,374.971z"></path> <path style="fill:#25B99A;" d="M421.486,73.257l8.229,9.143l-36.571,36.571l36.571,36.571l-36.571,36.571l36.571,36.571 l-36.571,36.571l36.571,36.571L393.143,338.4l36.571,36.571L409.6,395.086c-48.457-5.486-101.486,5.486-153.6,25.6 c-72.229-29.257-149.029-39.314-219.429-9.143h-9.143V73.257H0v356.571h512V73.257H421.486z"></path> </g></svg>